<?xml version="1.0" encoding="utf-8"?>
<!-- Generator: Adobe Illustrator 26.3.1, SVG Export Plug-In . SVG Version: 6.00 Build 0)  -->
<svg version="1.1" id="Layer_1" xmlns="http://www.w3.org/2000/svg" xmlns:xlink="http://www.w3.org/1999/xlink" x="0px" y="0px"
	 viewBox="0 0 1440 720" style="enable-background:new 0 0 1440 720;" xml:space="preserve">
<style type="text/css">
	.st0{fill:#1267CD;}
	.st1{fill:none;}
	.st2{fill:#76DDFF;}
	.st3{font-family:'Gogh-Medium';}
	.st4{font-size:116.3788px;}
</style>
<g>
	<g>
		<g>
			<path class="st0" d="M65.8,149.1c0-29.8,8.4-53.2,25.1-70.1c16.8-16.9,40.1-25.3,70.1-25.3c25.9,0,49,5.3,69.5,15.9
				c0.3,0.1,0.4,0.5,0.3,0.7l-5,12.9c-8,20.6-27.8,34.1-49.9,34.1h0c-22.5,0-33.8,13-33.8,38.9v26.4c0,0.3,0.3,0.6,0.6,0.6h80.5
				c0.3,0,0.6,0.3,0.6,0.6v61.4c0,0.3-0.3,0.6-0.6,0.6h-80.5c-0.3,0-0.6,0.3-0.6,0.6v214.7c0,0.3-0.3,0.6-0.6,0.6H66.4
				c-0.3,0-0.6-0.3-0.6-0.6V246.4c0-0.3-0.3-0.6-0.6-0.6H13.5c-0.3,0-0.6-0.3-0.6-0.6v-61.4c0-0.3,0.3-0.6,0.6-0.6h51.8
				c0.3,0,0.6-0.3,0.6-0.6V149.1z"/>
			<path class="st0" d="M390.7,468.9c-46.1,0-83.1-13.5-111-40.4c-27.9-26.9-41.9-62.1-41.9-105.6c0-42.9,13.6-78.1,40.9-105.4
				c27.3-27.4,62.5-41.1,105.6-41.1c31.7,0,59.4,7.9,83.1,23.6c23.7,15.7,40.7,37.1,51.2,64.1c10.5,27,13,56.7,7.7,89h-214
				c4.8,16.2,14.6,29.3,29.4,39.1c14.8,9.8,32.7,14.7,53.6,14.7c15.3,0,29.8-2.3,43.4-7c28.1-9.6,59.1,0.3,76.2,24.5l0,0
				C482.5,454,441.1,468.9,390.7,468.9z M311.8,299.6h146c-3.9-18.7-12.3-33.7-25.1-45c-12.9-11.3-28.8-17-47.7-17
				c-18.6,0-34.6,5.7-47.9,17C323.7,265.8,315.3,280.9,311.8,299.6z"/>
			<path class="st0" d="M584.6,461.7V183.3h35.5c20.3,0,36.8,16.3,37.1,36.6v0c24.1-27.2,53.1-40.8,86.9-40.8
				c18.6,0,35.2,4,49.9,12.1c14.6,8,26.4,19.6,35.2,34.6C855.2,194.6,888.8,179,930,179c33.5,0,60.4,10.2,80.7,30.5
				c20.3,20.3,30.4,47.4,30.4,81.3v170.9h-76.3V308.1c0-18.9-4.8-33.7-14.4-44.5c-9.6-10.8-23-16.2-40.1-16.2
				c-17.7,0-32.1,6.3-43.2,18.8c-11.1,12.5-16.6,28.9-16.6,49v146.5h-75.2V308.1c0-18.9-4.8-33.7-14.4-44.5
				c-9.6-10.8-22.8-16.2-39.6-16.2c-17.7,0-32.2,6.3-43.5,18.8c-11.3,12.5-16.9,28.9-16.9,49v146.5H584.6z"/>
			<path class="st0" d="M1283.1,468.3c-38.8,0-70.2-13.1-94.1-39.2v157.4h-76.3V183.3h33.4c21.4,0,38.9,17.2,39.2,38.7v0
				c11.9-14.3,26.2-25.4,42.9-33.2c16.8-7.9,35.1-11.8,54.9-11.8c39,0,71.1,13.6,96.3,40.8c25.2,27.2,37.8,62.1,37.8,104.6
				c0,42.7-12.6,77.8-37.8,105C1354.1,454.7,1322,468.3,1283.1,468.3z M1187.9,322.4c0,23.3,7.2,42.3,21.7,57.1
				c14.4,14.7,32.8,22.1,55.2,22.1c22.7,0,41.1-7.3,55.3-22c14.2-14.7,21.3-33.7,21.3-57.2c0-23.3-7.1-42.3-21.3-56.8
				c-14.2-14.6-32.6-21.9-55.3-21.9c-22.3,0-40.7,7.4-55.2,22.1C1195.1,280.5,1187.9,299.4,1187.9,322.4z"/>
		</g>
		<rect x="839.9" y="503.4" class="st1" width="3.8" height="19.3"/>
		<ellipse class="st2" cx="383.4" cy="98.5" rx="44" ry="44.8"/>
	</g>
	<text transform="matrix(1 0 0 1 318.8692 586.4807)" class="st0 st3 st4">jobs vacancy</text>
</g>
</svg>
